# This file uses centimeters as units for non-parametric coordinates.

v 0.978149 -1.000000 -0.207912
v 0.913546 -1.000000 -0.406737
v 0.809018 -1.000000 -0.587786
v 0.669131 -1.000000 -0.743145
v 0.500001 -1.000000 -0.866026
v 0.309017 -1.000000 -0.951057
v 0.104529 -1.000000 -0.994523
v -0.104528 -1.000000 -0.994523
v -0.309017 -1.000000 -0.951057
v -0.500000 -1.000000 -0.866026
v -0.669131 -1.000000 -0.743145
v -0.809017 -1.000000 -0.587786
v -0.913546 -1.000000 -0.406737
v -0.978148 -1.000000 -0.207912
v -1.000000 -1.000000 -0.000000
v -0.978148 -1.000000 0.207912
v -0.913546 -1.000000 0.406737
v -0.809017 -1.000000 0.587785
v -0.669131 -1.000000 0.743145
v -0.500000 -1.000000 0.866026
v -0.309017 -1.000000 0.951057
v -0.104529 -1.000000 0.994522
v 0.104528 -1.000000 0.994522
v 0.309017 -1.000000 0.951057
v 0.500000 -1.000000 0.866026
v 0.669131 -1.000000 0.743145
v 0.809017 -1.000000 0.587785
v 0.913546 -1.000000 0.406737
v 0.978148 -1.000000 0.207912
v 1.000000 -1.000000 0.000000
v 0.978149 1.000000 -0.207912
v 0.913546 1.000000 -0.406737
v 0.809018 1.000000 -0.587786
v 0.669131 1.000000 -0.743145
v 0.500001 1.000000 -0.866026
v 0.309017 1.000000 -0.951057
v 0.104529 1.000000 -0.994523
v -0.104528 1.000000 -0.994523
v -0.309017 1.000000 -0.951057
v -0.500000 1.000000 -0.866026
v -0.669131 1.000000 -0.743145
v -0.809017 1.000000 -0.587786
v -0.913546 1.000000 -0.406737
v -0.978148 1.000000 -0.207912
v -1.000000 1.000000 -0.000000
v -0.978148 1.000000 0.207912
v -0.913546 1.000000 0.406737
v -0.809017 1.000000 0.587785
v -0.669131 1.000000 0.743145
v -0.500000 1.000000 0.866026
v -0.309017 1.000000 0.951057
v -0.104529 1.000000 0.994522
v 0.104528 1.000000 0.994522
v 0.309017 1.000000 0.951057
v 0.500000 1.000000 0.866026
v 0.669131 1.000000 0.743145
v 0.809017 1.000000 0.587785
v 0.913546 1.000000 0.406737
v 0.978148 1.000000 0.207912
v 1.000000 1.000000 0.000000
v 0.000000 -1.000000 0.000000
v 0.000000 1.000000 0.000000
vt 0.652836 0.123764
vt 0.642742 0.092697
vt 0.626409 0.064408
vt 0.604552 0.040134
vt 0.578125 0.020933
vt 0.548284 0.007647
vt 0.516333 0.000856
vt 0.483667 0.000856
vt 0.451716 0.007647
vt 0.421875 0.020933
vt 0.395448 0.040134
vt 0.373591 0.064408
vt 0.357258 0.092697
vt 0.347164 0.123764
vt 0.343750 0.156250
vt 0.347164 0.188736
vt 0.357258 0.219803
vt 0.373591 0.248091
vt 0.395448 0.272366
vt 0.421875 0.291567
vt 0.451716 0.304853
vt 0.483667 0.311644
vt 0.516333 0.311644
vt 0.548284 0.304853
vt 0.578125 0.291566
vt 0.604552 0.272366
vt 0.626409 0.248091
vt 0.642742 0.219803
vt 0.652836 0.188736
vt 0.656250 0.156250
vt 0.375000 0.312500
vt 0.383333 0.312500
vt 0.391667 0.312500
vt 0.400000 0.312500
vt 0.408333 0.312500
vt 0.416667 0.312500
vt 0.425000 0.312500
vt 0.433333 0.312500
vt 0.441667 0.312500
vt 0.450000 0.312500
vt 0.458333 0.312500
vt 0.466667 0.312500
vt 0.475000 0.312500
vt 0.483333 0.312500
vt 0.491667 0.312500
vt 0.500000 0.312500
vt 0.508333 0.312500
vt 0.516667 0.312500
vt 0.525000 0.312500
vt 0.533333 0.312500
vt 0.541667 0.312500
vt 0.550000 0.312500
vt 0.558333 0.312500
vt 0.566666 0.312500
vt 0.575000 0.312500
vt 0.583333 0.312500
vt 0.591666 0.312500
vt 0.600000 0.312500
vt 0.608333 0.312500
vt 0.616666 0.312500
vt 0.625000 0.312500
vt 0.375000 0.688440
vt 0.383333 0.688440
vt 0.391667 0.688440
vt 0.400000 0.688440
vt 0.408333 0.688440
vt 0.416667 0.688440
vt 0.425000 0.688440
vt 0.433333 0.688440
vt 0.441667 0.688440
vt 0.450000 0.688440
vt 0.458333 0.688440
vt 0.466667 0.688440
vt 0.475000 0.688440
vt 0.483333 0.688440
vt 0.491667 0.688440
vt 0.500000 0.688440
vt 0.508333 0.688440
vt 0.516667 0.688440
vt 0.525000 0.688440
vt 0.533333 0.688440
vt 0.541667 0.688440
vt 0.550000 0.688440
vt 0.558333 0.688440
vt 0.566666 0.688440
vt 0.575000 0.688440
vt 0.583333 0.688440
vt 0.591666 0.688440
vt 0.600000 0.688440
vt 0.608333 0.688440
vt 0.616666 0.688440
vt 0.625000 0.688440
vt 0.652836 0.811264
vt 0.642742 0.780197
vt 0.626409 0.751908
vt 0.604552 0.727634
vt 0.578125 0.708433
vt 0.548284 0.695147
vt 0.516333 0.688356
vt 0.483667 0.688356
vt 0.451716 0.695147
vt 0.421875 0.708433
vt 0.395448 0.727634
vt 0.373591 0.751908
vt 0.357258 0.780197
vt 0.347164 0.811264
vt 0.343750 0.843750
vt 0.347164 0.876236
vt 0.357258 0.907303
vt 0.373591 0.935591
vt 0.395448 0.959866
vt 0.421875 0.979066
vt 0.451716 0.992353
vt 0.483667 0.999144
vt 0.516333 0.999144
vt 0.548284 0.992353
vt 0.578125 0.979066
vt 0.604552 0.959866
vt 0.626409 0.935591
vt 0.642742 0.907303
vt 0.652836 0.876236
vt 0.656250 0.843750
vt 0.500000 0.150000
vt 0.500000 0.837500
vn 0.978148 0.000000 -0.207909
vn 0.913545 0.000000 -0.406737
vn 0.913545 0.000000 -0.406737
vn 0.978148 0.000000 -0.207909
vn 0.809017 0.000000 -0.587785
vn 0.809017 0.000000 -0.587785
vn 0.669131 0.000000 -0.743145
vn 0.669131 0.000000 -0.743145
vn 0.500000 0.000000 -0.866025
vn 0.500000 0.000000 -0.866025
vn 0.309017 0.000000 -0.951056
vn 0.309017 0.000000 -0.951056
vn 0.104529 0.000000 -0.994522
vn 0.104529 0.000000 -0.994522
vn -0.104528 0.000000 -0.994522
vn -0.104528 0.000000 -0.994522
vn -0.309017 0.000000 -0.951057
vn -0.309017 0.000000 -0.951057
vn -0.500000 0.000000 -0.866025
vn -0.500000 0.000000 -0.866025
vn -0.669131 0.000000 -0.743145
vn -0.669131 0.000000 -0.743145
vn -0.809017 0.000000 -0.587785
vn -0.809017 0.000000 -0.587785
vn -0.913546 0.000000 -0.406737
vn -0.913546 0.000000 -0.406737
vn -0.978148 0.000000 -0.207912
vn -0.978148 0.000000 -0.207912
vn -1.000000 0.000000 0.000000
vn -1.000000 0.000000 0.000000
vn -0.978148 0.000000 0.207912
vn -0.978148 0.000000 0.207912
vn -0.913545 0.000000 0.406737
vn -0.913545 0.000000 0.406737
vn -0.809017 0.000000 0.587785
vn -0.809017 0.000000 0.587785
vn -0.669131 0.000000 0.743145
vn -0.669131 0.000000 0.743145
vn -0.500000 0.000000 0.866026
vn -0.500000 0.000000 0.866026
vn -0.309017 0.000000 0.951057
vn -0.309017 0.000000 0.951057
vn -0.104528 0.000000 0.994522
vn -0.104528 0.000000 0.994522
vn 0.104529 0.000000 0.994522
vn 0.104529 0.000000 0.994522
vn 0.309017 0.000000 0.951057
vn 0.309017 0.000000 0.951057
vn 0.500000 0.000000 0.866025
vn 0.500000 0.000000 0.866025
vn 0.669131 0.000000 0.743145
vn 0.669131 0.000000 0.743145
vn 0.809017 0.000000 0.587785
vn 0.809017 0.000000 0.587785
vn 0.913546 0.000000 0.406737
vn 0.913546 0.000000 0.406737
vn 0.978148 0.000000 0.207911
vn 0.978148 0.000000 0.207911
vn 1.000000 0.000000 0.000002
vn 1.000000 0.000000 0.000002
vn 0.000000 -1.000000 0.000000
vn 0.000000 -1.000000 0.000000
vn 0.000000 -1.000000 -0.000000
vn 0.000000 -1.000000 0.000000
vn 0.000000 -1.000000 0.000000
vn 0.000000 -1.000000 0.000000
vn 0.000000 -1.000000 -0.000000
vn 0.000000 -1.000000 -0.000000
vn 0.000000 -1.000000 -0.000000
vn 0.000000 -1.000000 0.000000
vn 0.000000 -1.000000 0.000000
vn 0.000000 -1.000000 0.000000
vn 0.000000 -1.000000 0.000000
vn 0.000000 -1.000000 0.000000
vn 0.000000 -1.000000 0.000000
vn 0.000000 -1.000000 0.000000
vn 0.000000 -1.000000 0.000000
vn 0.000000 -1.000000 0.000000
vn 0.000000 -1.000000 0.000000
vn 0.000000 -1.000000 0.000000
vn 0.000000 -1.000000 0.000000
vn 0.000000 -1.000000 -0.000000
vn 0.000000 -1.000000 -0.000000
vn 0.000000 -1.000000 0.000000
vn 0.000000 -1.000000 0.000000
vn 0.000000 -1.000000 0.000000
vn 0.000000 -1.000000 0.000000
vn 0.000000 -1.000000 0.000000
vn 0.000000 -1.000000 0.000000
vn 0.000000 -1.000000 0.000000
vn 0.000000 -1.000000 0.000000
vn 0.000000 1.000000 0.000000
vn 0.000000 1.000000 0.000000
vn 0.000000 1.000000 0.000000
vn 0.000000 1.000000 0.000000
vn 0.000000 1.000000 0.000000
vn 0.000000 1.000000 0.000000
vn 0.000000 1.000000 0.000000
vn 0.000000 1.000000 -0.000000
vn 0.000000 1.000000 -0.000000
vn 0.000000 1.000000 0.000000
vn 0.000000 1.000000 0.000000
vn 0.000000 1.000000 0.000000
vn 0.000000 1.000000 0.000000
vn 0.000000 1.000000 0.000000
vn 0.000000 1.000000 0.000000
vn 0.000000 1.000000 0.000000
vn 0.000000 1.000000 0.000000
vn 0.000000 1.000000 0.000000
vn 0.000000 1.000000 0.000000
vn 0.000000 1.000000 0.000000
vn 0.000000 1.000000 0.000000
vn 0.000000 1.000000 0.000000
vn 0.000000 1.000000 0.000000
vn 0.000000 1.000000 0.000000
vn 0.000000 1.000000 0.000000
vn 0.000000 1.000000 0.000000
vn 0.000000 1.000000 0.000000
vn 0.000000 1.000000 0.000000
vn 0.000000 1.000000 0.000000
vn 0.000000 1.000000 0.000000
vn 0.000000 1.000000 0.000000
f 1/31/1 2/32/2 32/63/3 31/62/4
f 2/32/2 3/33/5 33/64/6 32/63/3
f 3/33/5 4/34/7 34/65/8 33/64/6
f 4/34/7 5/35/9 35/66/10 34/65/8
f 5/35/9 6/36/11 36/67/12 35/66/10
f 6/36/11 7/37/13 37/68/14 36/67/12
f 7/37/13 8/38/15 38/69/16 37/68/14
f 8/38/15 9/39/17 39/70/18 38/69/16
f 9/39/17 10/40/19 40/71/20 39/70/18
f 10/40/19 11/41/21 41/72/22 40/71/20
f 11/41/21 12/42/23 42/73/24 41/72/22
f 12/42/23 13/43/25 43/74/26 42/73/24
f 13/43/25 14/44/27 44/75/28 43/74/26
f 14/44/27 15/45/29 45/76/30 44/75/28
f 15/45/29 16/46/31 46/77/32 45/76/30
f 16/46/31 17/47/33 47/78/34 46/77/32
f 17/47/33 18/48/35 48/79/36 47/78/34
f 18/48/35 19/49/37 49/80/38 48/79/36
f 19/49/37 20/50/39 50/81/40 49/80/38
f 20/50/39 21/51/41 51/82/42 50/81/40
f 21/51/41 22/52/43 52/83/44 51/82/42
f 22/52/43 23/53/45 53/84/46 52/83/44
f 23/53/45 24/54/47 54/85/48 53/84/46
f 24/54/47 25/55/49 55/86/50 54/85/48
f 25/55/49 26/56/51 56/87/52 55/86/50
f 26/56/51 27/57/53 57/88/54 56/87/52
f 27/57/53 28/58/55 58/89/56 57/88/54
f 28/58/55 29/59/57 59/90/58 58/89/56
f 29/59/57 30/60/59 60/91/60 59/90/58
f 30/60/59 1/61/1 31/92/4 60/91/60
f 2/2/61 1/1/62 61/123/63
f 3/3/64 2/2/61 61/123/63
f 4/4/65 3/3/64 61/123/63
f 5/5/66 4/4/65 61/123/63
f 6/6/67 5/5/66 61/123/63
f 7/7/68 6/6/67 61/123/63
f 8/8/69 7/7/68 61/123/63
f 9/9/70 8/8/69 61/123/63
f 10/10/71 9/9/70 61/123/63
f 11/11/72 10/10/71 61/123/63
f 12/12/73 11/11/72 61/123/63
f 13/13/74 12/12/73 61/123/63
f 14/14/75 13/13/74 61/123/63
f 15/15/76 14/14/75 61/123/63
f 16/16/77 15/15/76 61/123/63
f 17/17/78 16/16/77 61/123/63
f 18/18/79 17/17/78 61/123/63
f 19/19/80 18/18/79 61/123/63
f 20/20/81 19/19/80 61/123/63
f 21/21/82 20/20/81 61/123/63
f 22/22/83 21/21/82 61/123/63
f 23/23/84 22/22/83 61/123/63
f 24/24/85 23/23/84 61/123/63
f 25/25/86 24/24/85 61/123/63
f 26/26/87 25/25/86 61/123/63
f 27/27/88 26/26/87 61/123/63
f 28/28/89 27/27/88 61/123/63
f 29/29/90 28/28/89 61/123/63
f 30/30/91 29/29/90 61/123/63
f 1/1/62 30/30/91 61/123/63
f 31/121/92 32/120/93 62/124/94
f 32/120/93 33/119/95 62/124/94
f 33/119/95 34/118/96 62/124/94
f 34/118/96 35/117/97 62/124/94
f 35/117/97 36/116/98 62/124/94
f 36/116/98 37/115/99 62/124/94
f 37/115/99 38/114/100 62/124/94
f 38/114/100 39/113/101 62/124/94
f 39/113/101 40/112/102 62/124/94
f 40/112/102 41/111/103 62/124/94
f 41/111/103 42/110/104 62/124/94
f 42/110/104 43/109/105 62/124/94
f 43/109/105 44/108/106 62/124/94
f 44/108/106 45/107/107 62/124/94
f 45/107/107 46/106/108 62/124/94
f 46/106/108 47/105/109 62/124/94
f 47/105/109 48/104/110 62/124/94
f 48/104/110 49/103/111 62/124/94
f 49/103/111 50/102/112 62/124/94
f 50/102/112 51/101/113 62/124/94
f 51/101/113 52/100/114 62/124/94
f 52/100/114 53/99/115 62/124/94
f 53/99/115 54/98/116 62/124/94
f 54/98/116 55/97/117 62/124/94
f 55/97/117 56/96/118 62/124/94
f 56/96/118 57/95/119 62/124/94
f 57/95/119 58/94/120 62/124/94
f 58/94/120 59/93/121 62/124/94
f 59/93/121 60/122/122 62/124/94
f 60/122/122 31/121/92 62/124/94
v 0.978149 -1.000000 -0.207912
v 0.913546 -1.000000 -0.406737
v 0.809018 -1.000000 -0.587786
v 0.669131 -1.000000 -0.743145
v 0.500001 -1.000000 -0.866026
v 0.309017 -1.000000 -0.951057
v 0.104529 -1.000000 -0.994523
v -0.104528 -1.000000 -0.994523
v -0.309017 -1.000000 -0.951057
v -0.500000 -1.000000 -0.866026
v -0.669131 -1.000000 -0.743145
v -0.809017 -1.000000 -0.587786
v -0.913546 -1.000000 -0.406737
v -0.978148 -1.000000 -0.207912
v -1.000000 -1.000000 -0.000000
v -0.978148 -1.000000 0.207912
v -0.913546 -1.000000 0.406737
v -0.809017 -1.000000 0.587785
v -0.669131 -1.000000 0.743145
v -0.500000 -1.000000 0.866026
v -0.309017 -1.000000 0.951057
v -0.104529 -1.000000 0.994522
v 0.104528 -1.000000 0.994522
v 0.309017 -1.000000 0.951057
v 0.500000 -1.000000 0.866026
v 0.669131 -1.000000 0.743145
v 0.809017 -1.000000 0.587785
v 0.913546 -1.000000 0.406737
v 0.978148 -1.000000 0.207912
v 1.000000 -1.000000 0.000000
v 0.978149 1.000000 -0.207912
v 0.913546 1.000000 -0.406737
v 0.809018 1.000000 -0.587786
v 0.669131 1.000000 -0.743145
v 0.500001 1.000000 -0.866026
v 0.309017 1.000000 -0.951057
v 0.104529 1.000000 -0.994523
v -0.104528 1.000000 -0.994523
v -0.309017 1.000000 -0.951057
v -0.500000 1.000000 -0.866026
v -0.669131 1.000000 -0.743145
v -0.809017 1.000000 -0.587786
v -0.913546 1.000000 -0.406737
v -0.978148 1.000000 -0.207912
v -1.000000 1.000000 -0.000000
v -0.978148 1.000000 0.207912
v -0.913546 1.000000 0.406737
v -0.809017 1.000000 0.587785
v -0.669131 1.000000 0.743145
v -0.500000 1.000000 0.866026
v -0.309017 1.000000 0.951057
v -0.104529 1.000000 0.994522
v 0.104528 1.000000 0.994522
v 0.309017 1.000000 0.951057
v 0.500000 1.000000 0.866026
v 0.669131 1.000000 0.743145
v 0.809017 1.000000 0.587785
v 0.913546 1.000000 0.406737
v 0.978148 1.000000 0.207912
v 1.000000 1.000000 0.000000
v 0.000000 -1.000000 0.000000
v 0.000000 1.000000 0.000000
vt 0.652836 0.123764
vt 0.642742 0.092697
vt 0.626409 0.064408
vt 0.604552 0.040134
vt 0.578125 0.020933
vt 0.548284 0.007647
vt 0.516333 0.000856
vt 0.483667 0.000856
vt 0.451716 0.007647
vt 0.421875 0.020933
vt 0.395448 0.040134
vt 0.373591 0.064408
vt 0.357258 0.092697
vt 0.347164 0.123764
vt 0.343750 0.156250
vt 0.347164 0.188736
vt 0.357258 0.219803
vt 0.373591 0.248091
vt 0.395448 0.272366
vt 0.421875 0.291567
vt 0.451716 0.304853
vt 0.483667 0.311644
vt 0.516333 0.311644
vt 0.548284 0.304853
vt 0.578125 0.291566
vt 0.604552 0.272366
vt 0.626409 0.248091
vt 0.642742 0.219803
vt 0.652836 0.188736
vt 0.656250 0.156250
vt 0.375000 0.312500
vt 0.383333 0.312500
vt 0.391667 0.312500
vt 0.400000 0.312500
vt 0.408333 0.312500
vt 0.416667 0.312500
vt 0.425000 0.312500
vt 0.433333 0.312500
vt 0.441667 0.312500
vt 0.450000 0.312500
vt 0.458333 0.312500
vt 0.466667 0.312500
vt 0.475000 0.312500
vt 0.483333 0.312500
vt 0.491667 0.312500
vt 0.500000 0.312500
vt 0.508333 0.312500
vt 0.516667 0.312500
vt 0.525000 0.312500
vt 0.533333 0.312500
vt 0.541667 0.312500
vt 0.550000 0.312500
vt 0.558333 0.312500
vt 0.566666 0.312500
vt 0.575000 0.312500
vt 0.583333 0.312500
vt 0.591666 0.312500
vt 0.600000 0.312500
vt 0.608333 0.312500
vt 0.616666 0.312500
vt 0.625000 0.312500
vt 0.375000 0.688440
vt 0.383333 0.688440
vt 0.391667 0.688440
vt 0.400000 0.688440
vt 0.408333 0.688440
vt 0.416667 0.688440
vt 0.425000 0.688440
vt 0.433333 0.688440
vt 0.441667 0.688440
vt 0.450000 0.688440
vt 0.458333 0.688440
vt 0.466667 0.688440
vt 0.475000 0.688440
vt 0.483333 0.688440
vt 0.491667 0.688440
vt 0.500000 0.688440
vt 0.508333 0.688440
vt 0.516667 0.688440
vt 0.525000 0.688440
vt 0.533333 0.688440
vt 0.541667 0.688440
vt 0.550000 0.688440
vt 0.558333 0.688440
vt 0.566666 0.688440
vt 0.575000 0.688440
vt 0.583333 0.688440
vt 0.591666 0.688440
vt 0.600000 0.688440
vt 0.608333 0.688440
vt 0.616666 0.688440
vt 0.625000 0.688440
vt 0.652836 0.811264
vt 0.642742 0.780197
vt 0.626409 0.751908
vt 0.604552 0.727634
vt 0.578125 0.708433
vt 0.548284 0.695147
vt 0.516333 0.688356
vt 0.483667 0.688356
vt 0.451716 0.695147
vt 0.421875 0.708433
vt 0.395448 0.727634
vt 0.373591 0.751908
vt 0.357258 0.780197
vt 0.347164 0.811264
vt 0.343750 0.843750
vt 0.347164 0.876236
vt 0.357258 0.907303
vt 0.373591 0.935591
vt 0.395448 0.959866
vt 0.421875 0.979066
vt 0.451716 0.992353
vt 0.483667 0.999144
vt 0.516333 0.999144
vt 0.548284 0.992353
vt 0.578125 0.979066
vt 0.604552 0.959866
vt 0.626409 0.935591
vt 0.642742 0.907303
vt 0.652836 0.876236
vt 0.656250 0.843750
vt 0.500000 0.150000
vt 0.500000 0.837500
vn 0.978148 0.000000 -0.207909
vn 0.913545 0.000000 -0.406737
vn 0.913545 0.000000 -0.406737
vn 0.978148 0.000000 -0.207909
vn 0.809017 0.000000 -0.587785
vn 0.809017 0.000000 -0.587785
vn 0.669131 0.000000 -0.743145
vn 0.669131 0.000000 -0.743145
vn 0.500000 0.000000 -0.866025
vn 0.500000 0.000000 -0.866025
vn 0.309017 0.000000 -0.951056
vn 0.309017 0.000000 -0.951056
vn 0.104529 0.000000 -0.994522
vn 0.104529 0.000000 -0.994522
vn -0.104528 0.000000 -0.994522
vn -0.104528 0.000000 -0.994522
vn -0.309017 0.000000 -0.951057
vn -0.309017 0.000000 -0.951057
vn -0.500000 0.000000 -0.866025
vn -0.500000 0.000000 -0.866025
vn -0.669131 0.000000 -0.743145
vn -0.669131 0.000000 -0.743145
vn -0.809017 0.000000 -0.587785
vn -0.809017 0.000000 -0.587785
vn -0.913546 0.000000 -0.406737
vn -0.913546 0.000000 -0.406737
vn -0.978148 0.000000 -0.207912
vn -0.978148 0.000000 -0.207912
vn -1.000000 0.000000 0.000000
vn -1.000000 0.000000 0.000000
vn -0.978148 0.000000 0.207912
vn -0.978148 0.000000 0.207912
vn -0.913545 0.000000 0.406737
vn -0.913545 0.000000 0.406737
vn -0.809017 0.000000 0.587785
vn -0.809017 0.000000 0.587785
vn -0.669131 0.000000 0.743145
vn -0.669131 0.000000 0.743145
vn -0.500000 0.000000 0.866026
vn -0.500000 0.000000 0.866026
vn -0.309017 0.000000 0.951057
vn -0.309017 0.000000 0.951057
vn -0.104528 0.000000 0.994522
vn -0.104528 0.000000 0.994522
vn 0.104529 0.000000 0.994522
vn 0.104529 0.000000 0.994522
vn 0.309017 0.000000 0.951057
vn 0.309017 0.000000 0.951057
vn 0.500000 0.000000 0.866025
vn 0.500000 0.000000 0.866025
vn 0.669131 0.000000 0.743145
vn 0.669131 0.000000 0.743145
vn 0.809017 0.000000 0.587785
vn 0.809017 0.000000 0.587785
vn 0.913546 0.000000 0.406737
vn 0.913546 0.000000 0.406737
vn 0.978148 0.000000 0.207911
vn 0.978148 0.000000 0.207911
vn 1.000000 0.000000 0.000002
vn 1.000000 0.000000 0.000002
vn 0.000000 -1.000000 0.000000
vn 0.000000 -1.000000 0.000000
vn 0.000000 -1.000000 -0.000000
vn 0.000000 -1.000000 0.000000
vn 0.000000 -1.000000 0.000000
vn 0.000000 -1.000000 0.000000
vn 0.000000 -1.000000 -0.000000
vn 0.000000 -1.000000 -0.000000
vn 0.000000 -1.000000 -0.000000
vn 0.000000 -1.000000 0.000000
vn 0.000000 -1.000000 0.000000
vn 0.000000 -1.000000 0.000000
vn 0.000000 -1.000000 0.000000
vn 0.000000 -1.000000 0.000000
vn 0.000000 -1.000000 0.000000
vn 0.000000 -1.000000 0.000000
vn 0.000000 -1.000000 0.000000
vn 0.000000 -1.000000 0.000000
vn 0.000000 -1.000000 0.000000
vn 0.000000 -1.000000 0.000000
vn 0.000000 -1.000000 0.000000
vn 0.000000 -1.000000 -0.000000
vn 0.000000 -1.000000 -0.000000
vn 0.000000 -1.000000 0.000000
vn 0.000000 -1.000000 0.000000
vn 0.000000 -1.000000 0.000000
vn 0.000000 -1.000000 0.000000
vn 0.000000 -1.000000 0.000000
vn 0.000000 -1.000000 0.000000
vn 0.000000 -1.000000 0.000000
vn 0.000000 -1.000000 0.000000
vn 0.000000 1.000000 0.000000
vn 0.000000 1.000000 0.000000
vn 0.000000 1.000000 0.000000
vn 0.000000 1.000000 0.000000
vn 0.000000 1.000000 0.000000
vn 0.000000 1.000000 0.000000
vn 0.000000 1.000000 0.000000
vn 0.000000 1.000000 -0.000000
vn 0.000000 1.000000 -0.000000
vn 0.000000 1.000000 0.000000
vn 0.000000 1.000000 0.000000
vn 0.000000 1.000000 0.000000
vn 0.000000 1.000000 0.000000
vn 0.000000 1.000000 0.000000
vn 0.000000 1.000000 0.000000
vn 0.000000 1.000000 0.000000
vn 0.000000 1.000000 0.000000
vn 0.000000 1.000000 0.000000
vn 0.000000 1.000000 0.000000
vn 0.000000 1.000000 0.000000
vn 0.000000 1.000000 0.000000
vn 0.000000 1.000000 0.000000
vn 0.000000 1.000000 0.000000
vn 0.000000 1.000000 0.000000
vn 0.000000 1.000000 0.000000
vn 0.000000 1.000000 0.000000
vn 0.000000 1.000000 0.000000
vn 0.000000 1.000000 0.000000
vn 0.000000 1.000000 0.000000
vn 0.000000 1.000000 0.000000
vn 0.000000 1.000000 0.000000
f 63/155/123 64/156/124 94/187/125 93/186/126
f 64/156/124 65/157/127 95/188/128 94/187/125
f 65/157/127 66/158/129 96/189/130 95/188/128
f 66/158/129 67/159/131 97/190/132 96/189/130
f 67/159/131 68/160/133 98/191/134 97/190/132
f 68/160/133 69/161/135 99/192/136 98/191/134
f 69/161/135 70/162/137 100/193/138 99/192/136
f 70/162/137 71/163/139 101/194/140 100/193/138
f 71/163/139 72/164/141 102/195/142 101/194/140
f 72/164/141 73/165/143 103/196/144 102/195/142
f 73/165/143 74/166/145 104/197/146 103/196/144
f 74/166/145 75/167/147 105/198/148 104/197/146
f 75/167/147 76/168/149 106/199/150 105/198/148
f 76/168/149 77/169/151 107/200/152 106/199/150
f 77/169/151 78/170/153 108/201/154 107/200/152
f 78/170/153 79/171/155 109/202/156 108/201/154
f 79/171/155 80/172/157 110/203/158 109/202/156
f 80/172/157 81/173/159 111/204/160 110/203/158
f 81/173/159 82/174/161 112/205/162 111/204/160
f 82/174/161 83/175/163 113/206/164 112/205/162
f 83/175/163 84/176/165 114/207/166 113/206/164
f 84/176/165 85/177/167 115/208/168 114/207/166
f 85/177/167 86/178/169 116/209/170 115/208/168
f 86/178/169 87/179/171 117/210/172 116/209/170
f 87/179/171 88/180/173 118/211/174 117/210/172
f 88/180/173 89/181/175 119/212/176 118/211/174
f 89/181/175 90/182/177 120/213/178 119/212/176
f 90/182/177 91/183/179 121/214/180 120/213/178
f 91/183/179 92/184/181 122/215/182 121/214/180
f 92/184/181 63/185/123 93/216/126 122/215/182
f 64/126/183 63/125/184 123/247/185
f 65/127/186 64/126/183 123/247/185
f 66/128/187 65/127/186 123/247/185
f 67/129/188 66/128/187 123/247/185
f 68/130/189 67/129/188 123/247/185
f 69/131/190 68/130/189 123/247/185
f 70/132/191 69/131/190 123/247/185
f 71/133/192 70/132/191 123/247/185
f 72/134/193 71/133/192 123/247/185
f 73/135/194 72/134/193 123/247/185
f 74/136/195 73/135/194 123/247/185
f 75/137/196 74/136/195 123/247/185
f 76/138/197 75/137/196 123/247/185
f 77/139/198 76/138/197 123/247/185
f 78/140/199 77/139/198 123/247/185
f 79/141/200 78/140/199 123/247/185
f 80/142/201 79/141/200 123/247/185
f 81/143/202 80/142/201 123/247/185
f 82/144/203 81/143/202 123/247/185
f 83/145/204 82/144/203 123/247/185
f 84/146/205 83/145/204 123/247/185
f 85/147/206 84/146/205 123/247/185
f 86/148/207 85/147/206 123/247/185
f 87/149/208 86/148/207 123/247/185
f 88/150/209 87/149/208 123/247/185
f 89/151/210 88/150/209 123/247/185
f 90/152/211 89/151/210 123/247/185
f 91/153/212 90/152/211 123/247/185
f 92/154/213 91/153/212 123/247/185
f 63/125/184 92/154/213 123/247/185
f 93/245/214 94/244/215 124/248/216
f 94/244/215 95/243/217 124/248/216
f 95/243/217 96/242/218 124/248/216
f 96/242/218 97/241/219 124/248/216
f 97/241/219 98/240/220 124/248/216
f 98/240/220 99/239/221 124/248/216
f 99/239/221 100/238/222 124/248/216
f 100/238/222 101/237/223 124/248/216
f 101/237/223 102/236/224 124/248/216
f 102/236/224 103/235/225 124/248/216
f 103/235/225 104/234/226 124/248/216
f 104/234/226 105/233/227 124/248/216
f 105/233/227 106/232/228 124/248/216
f 106/232/228 107/231/229 124/248/216
f 107/231/229 108/230/230 124/248/216
f 108/230/230 109/229/231 124/248/216
f 109/229/231 110/228/232 124/248/216
f 110/228/232 111/227/233 124/248/216
f 111/227/233 112/226/234 124/248/216
f 112/226/234 113/225/235 124/248/216
f 113/225/235 114/224/236 124/248/216
f 114/224/236 115/223/237 124/248/216
f 115/223/237 116/222/238 124/248/216
f 116/222/238 117/221/239 124/248/216
f 117/221/239 118/220/240 124/248/216
f 118/220/240 119/219/241 124/248/216
f 119/219/241 120/218/242 124/248/216
f 120/218/242 121/217/243 124/248/216
f 121/217/243 122/246/244 124/248/216
f 122/246/244 93/245/214 124/248/216
