# This file uses centimeters as units for non-parametric coordinates.

v 1.328696 0.000000 -0.821179
v 1.328696 0.000000 0.821179
v -1.328696 -0.000000 0.821179
v -1.328696 0.000000 -0.821179
v -0.000000 0.821179 1.328696
v -0.000000 0.821179 -1.328696
v 0.821179 1.328696 0.000000
v -0.821179 1.328696 -0.000000
v 0.533379 1.447289 -0.000000
v 0.193489 1.512737 -0.000000
v -0.193489 1.512737 -0.000000
v -0.533379 1.447289 -0.000000
v -0.713926 1.335705 -0.292132
v -0.564206 1.283622 -0.599832
v -0.370717 1.164039 -0.912905
v -0.180548 1.006059 -1.155157
v -1.155157 0.180548 -1.006059
v -0.912905 0.370717 -1.164039
v -0.599832 0.564206 -1.283622
v -0.292132 0.713926 -1.335705
v -0.912905 -0.370717 -1.164039
v -1.155157 -0.180548 -1.006059
v -0.180548 1.006059 1.155157
v -0.370717 1.164038 0.912905
v -0.564206 1.283622 0.599832
v -0.713926 1.335705 0.292132
v -1.155157 -0.180548 1.006059
v -0.912905 -0.370717 1.164039
v -0.292132 0.713926 1.335705
v -0.599832 0.564206 1.283622
v -0.912905 0.370717 1.164039
v -1.155157 0.180548 1.006059
v -1.006059 1.155157 -0.180548
v -1.164039 0.912905 -0.370717
v -1.283622 0.599832 -0.564206
v -1.335705 0.292132 -0.713926
v -1.335705 0.292132 0.713926
v -1.283622 0.599832 0.564206
v -1.164039 0.912905 0.370717
v -1.006059 1.155157 0.180548
v -1.447289 -0.000000 0.533379
v -1.512737 -0.000000 0.193489
v -1.512737 -0.000000 -0.193490
v -1.447290 -0.000000 -0.533379
v -1.335705 -0.292132 0.713926
v -1.335705 -0.292132 -0.713926
v 0.713926 1.335705 0.292132
v 0.564206 1.283622 0.599832
v 0.370717 1.164039 0.912905
v 0.180548 1.006059 1.155157
v -0.000000 0.533379 1.447289
v 0.000000 0.193490 1.512737
v 0.000000 -0.193490 1.512737
v 1.155157 0.180548 1.006059
v 0.912905 0.370717 1.164039
v 0.599832 0.564206 1.283622
v 0.292132 0.713926 1.335705
v 0.912905 -0.370717 1.164039
v 1.155157 -0.180548 1.006059
v 0.180548 1.006059 -1.155157
v 0.370717 1.164038 -0.912905
v 0.564206 1.283622 -0.599832
v 0.713926 1.335705 -0.292132
v 0.292132 0.713926 -1.335705
v 0.599832 0.564206 -1.283622
v 0.912905 0.370717 -1.164039
v 1.155157 0.180548 -1.006059
v -0.000000 -0.193490 -1.512737
v -0.000000 0.193490 -1.512737
v -0.000000 0.533379 -1.447289
v 1.155157 -0.180548 -1.006059
v 0.912905 -0.370717 -1.164039
v 1.006059 1.155157 0.180548
v 1.164039 0.912905 0.370717
v 1.283622 0.599832 0.564206
v 1.335705 0.292132 0.713926
v 1.335705 0.292132 -0.713926
v 1.283622 0.599832 -0.564206
v 1.164039 0.912905 -0.370717
v 1.006059 1.155157 -0.180548
v 1.447289 -0.000000 -0.533379
v 1.512737 -0.000000 -0.193489
v 1.512737 -0.000000 0.193490
v 1.447290 -0.000000 0.533379
v 1.335705 -0.292132 -0.713926
v 1.335705 -0.292132 0.713926
v -0.384438 1.445540 -0.314551
v 0.000000 1.484046 -0.329299
v 0.384438 1.445540 -0.314551
v -0.192187 1.365268 -0.640264
v 0.192187 1.365268 -0.640264
v 0.000000 1.207944 -0.936585
v 0.384438 1.445540 0.314551
v -0.000000 1.484046 0.329299
v -0.384438 1.445540 0.314551
v 0.192187 1.365268 0.640264
v -0.192186 1.365268 0.640264
v -0.000000 1.207944 0.936585
v -0.893393 1.130988 -0.508955
v -0.725004 1.035968 -0.843782
v -0.508955 0.893393 -1.130989
v -1.035969 0.843782 -0.725004
v -0.843782 0.725004 -1.035969
v -1.130988 0.508955 -0.893393
v -0.314551 -0.384438 -1.445540
v -0.640264 -0.192187 -1.365268
v -0.936585 -0.000000 -1.207944
v -0.329299 0.000000 -1.484046
v -0.640264 0.192187 -1.365268
v -0.314551 0.384438 -1.445539
v -0.893392 1.130988 0.508955
v -1.035969 0.843782 0.725004
v -1.130988 0.508955 0.893393
v -0.725004 1.035969 0.843782
v -0.843782 0.725004 1.035968
v -0.508955 0.893393 1.130988
v -0.314551 0.384438 1.445540
v -0.640264 0.192187 1.365268
v -0.936585 -0.000000 1.207944
v -0.329299 -0.000000 1.484046
v -0.640264 -0.192187 1.365268
v -0.314551 -0.384438 1.445539
v -1.207944 0.936585 -0.000000
v -1.365268 0.640264 -0.192187
v -1.445540 0.314551 -0.384438
v -1.365268 0.640264 0.192187
v -1.484046 0.329299 0.000000
v -1.445539 0.314551 0.384438
v -1.445540 -0.314551 0.384438
v -1.484046 -0.329299 -0.000000
v -1.445539 -0.314551 -0.384438
v 0.893393 1.130988 0.508955
v 0.725004 1.035968 0.843782
v 0.508955 0.893393 1.130989
v 1.035968 0.843782 0.725004
v 0.843782 0.725004 1.035969
v 1.130988 0.508955 0.893393
v 0.936585 -0.000000 1.207944
v 0.640264 0.192187 1.365268
v 0.314551 0.384438 1.445540
v 0.640264 -0.192187 1.365268
v 0.329299 0.000000 1.484046
v 0.314551 -0.384438 1.445539
v 0.508955 0.893393 -1.130988
v 0.725004 1.035969 -0.843782
v 0.893393 1.130989 -0.508955
v 0.843782 0.725004 -1.035969
v 1.035968 0.843782 -0.725004
v 1.130988 0.508955 -0.893392
v 0.314551 -0.384438 -1.445540
v 0.329299 0.000000 -1.484046
v 0.314551 0.384438 -1.445540
v 0.640264 -0.192187 -1.365268
v 0.640264 0.192187 -1.365268
v 0.936585 -0.000000 -1.207944
v 1.207944 0.936585 0.000000
v 1.365268 0.640264 0.192187
v 1.445540 0.314551 0.384438
v 1.365268 0.640264 -0.192187
v 1.484046 0.329299 0.000000
v 1.445539 0.314551 -0.384438
v 1.445540 -0.314551 -0.384438
v 1.484046 -0.329299 0.000000
v 1.445539 -0.314551 0.384438
vt 0.181818 0.250000
vt 0.363636 0.250000
vt 0.545455 0.250000
vt 0.727273 0.250000
vt 0.909091 0.250000
vt 0.090909 0.416667
vt 0.272727 0.416667
vt 0.454545 0.416667
vt 0.636364 0.416667
vt 0.818182 0.416667
vt 1.000000 0.416667
vt 0.000000 0.583333
vt 0.727273 0.583333
vt 0.909091 0.583333
vt 0.836364 0.383333
vt 0.800000 0.383333
vt 0.854545 0.350000
vt 0.781818 0.350000
vt 0.872727 0.316667
vt 0.763636 0.316667
vt 0.890909 0.283333
vt 0.745455 0.283333
vt 0.563636 0.283333
vt 0.709091 0.283333
vt 0.581818 0.316667
vt 0.690909 0.316667
vt 0.600000 0.350000
vt 0.672727 0.350000
vt 0.618182 0.383333
vt 0.654545 0.383333
vt 0.490909 0.416667
vt 0.527273 0.416667
vt 0.563636 0.416667
vt 0.600000 0.416667
vt 0.490909 0.483333
vt 0.472727 0.450000
vt 0.109091 0.383333
vt 0.981818 0.383333
vt 0.127273 0.350000
vt 0.963636 0.350000
vt 0.145455 0.316667
vt 0.945455 0.316667
vt 0.163636 0.283333
vt 0.927273 0.283333
vt 0.254545 0.450000
vt 0.236364 0.483333
vt 0.127273 0.416667
vt 0.163636 0.416667
vt 0.200000 0.416667
vt 0.236364 0.416667
vt 0.381818 0.283333
vt 0.527273 0.283333
vt 0.400000 0.316667
vt 0.509091 0.316667
vt 0.418182 0.350000
vt 0.490909 0.350000
vt 0.436364 0.383333
vt 0.472727 0.383333
vt 0.290909 0.383333
vt 0.254545 0.383333
vt 0.309091 0.350000
vt 0.236364 0.350000
vt 0.327273 0.316667
vt 0.218182 0.316667
vt 0.345455 0.283333
vt 0.200000 0.283333
vt 0.309091 0.416667
vt 0.345455 0.416667
vt 0.381818 0.416667
vt 0.418182 0.416667
vt 0.290909 0.450000
vt 0.436364 0.450000
vt 0.854545 0.416667
vt 0.890909 0.416667
vt 0.927273 0.416667
vt 0.963636 0.416667
vt 0.109091 0.450000
vt 0.127273 0.483333
vt 0.145455 0.516667
vt 0.018182 0.550000
vt 0.927273 0.550000
vt 0.036364 0.516667
vt 0.945455 0.516667
vt 0.054545 0.483333
vt 0.963636 0.483333
vt 0.072727 0.450000
vt 0.981818 0.450000
vt 0.072727 0.583333
vt 0.036364 0.583333
vt 0.672727 0.416667
vt 0.709091 0.416667
vt 0.745455 0.416667
vt 0.781818 0.416667
vt 0.654545 0.450000
vt 0.672727 0.483333
vt 0.690909 0.516667
vt 0.709091 0.550000
vt 0.581818 0.516667
vt 0.600000 0.483333
vt 0.618182 0.450000
vt 0.690909 0.583333
vt 0.654545 0.583333
vt 0.836364 0.450000
vt 0.854545 0.483333
vt 0.872727 0.516667
vt 0.890909 0.550000
vt 0.745455 0.550000
vt 0.763636 0.516667
vt 0.781818 0.483333
vt 0.800000 0.450000
vt 0.763636 0.583333
vt 0.800000 0.583333
vt 0.836364 0.583333
vt 0.872727 0.583333
vt 0.745455 0.616667
vt 0.709091 0.616667
vt 0.890909 0.616667
vt 0.018182 0.616667
vt 0.727273 0.316667
vt 0.745455 0.350000
vt 0.763636 0.383333
vt 0.709091 0.350000
vt 0.727273 0.383333
vt 0.690909 0.383333
vt 0.872727 0.383333
vt 0.890909 0.350000
vt 0.909091 0.316667
vt 0.909091 0.383333
vt 0.927273 0.350000
vt 0.945455 0.383333
vt 0.545455 0.316667
vt 0.563636 0.350000
vt 0.581818 0.383333
vt 0.527273 0.350000
vt 0.545455 0.383333
vt 0.509091 0.383333
vt 0.545455 0.516667
vt 0.527273 0.483333
vt 0.509091 0.450000
vt 0.563636 0.483333
vt 0.545455 0.450000
vt 0.581818 0.450000
vt 0.181818 0.316667
vt 0.200000 0.350000
vt 0.218182 0.383333
vt 0.163636 0.350000
vt 0.181818 0.383333
vt 0.145455 0.383333
vt 0.145455 0.450000
vt 0.181818 0.450000
vt 0.218182 0.450000
vt 0.163636 0.483333
vt 0.200000 0.483333
vt 0.181818 0.516667
vt 0.363636 0.316667
vt 0.381818 0.350000
vt 0.400000 0.383333
vt 0.345455 0.350000
vt 0.363636 0.383333
vt 0.327273 0.383333
vt 0.327273 0.450000
vt 0.363636 0.450000
vt 0.400000 0.450000
vt 0.872727 0.450000
vt 0.909091 0.450000
vt 0.945455 0.450000
vt 0.890909 0.483333
vt 0.927273 0.483333
vt 0.909091 0.516667
vt 0.054545 0.550000
vt 0.072727 0.516667
vt 0.090909 0.483333
vt 0.090909 0.550000
vt 0.109091 0.516667
vt 0.127273 0.550000
vt 0.690909 0.450000
vt 0.727273 0.450000
vt 0.763636 0.450000
vt 0.709091 0.483333
vt 0.745455 0.483333
vt 0.727273 0.516667
vt 0.600000 0.550000
vt 0.618182 0.516667
vt 0.636364 0.483333
vt 0.636364 0.550000
vt 0.654545 0.516667
vt 0.672727 0.550000
vt 0.818182 0.483333
vt 0.836364 0.516667
vt 0.854545 0.550000
vt 0.800000 0.516667
vt 0.818182 0.550000
vt 0.781818 0.550000
vt 0.781818 0.616667
vt 0.818182 0.616667
vt 0.854545 0.616667
vn 0.850651 0.000000 0.525731
vn 0.895132 -0.155975 0.417624
vn 0.957386 -0.000000 0.288812
vn 0.850651 0.000000 -0.525731
vn 0.863789 0.245039 -0.440254
vn 0.957386 0.000000 -0.288812
vn 0.701291 -0.081024 -0.708256
vn 0.712347 0.151443 -0.685294
vn 0.895132 -0.155975 -0.417624
vn 0.863789 0.245039 0.440255
vn 0.712347 0.151443 0.685294
vn -0.850651 0.000000 -0.525731
vn -0.895132 -0.155975 -0.417624
vn -0.957386 -0.000000 -0.288812
vn -0.850651 -0.000000 0.525731
vn -0.863789 0.245039 0.440254
vn -0.957386 0.000000 0.288812
vn -0.895132 -0.155975 0.417624
vn -0.701290 -0.081025 0.708256
vn 0.000000 0.525731 0.850651
vn -0.151443 0.685294 0.712346
vn -0.245039 0.440254 0.863789
vn -0.000000 0.525731 -0.850651
vn -0.000000 0.288812 -0.957386
vn -0.245039 0.440254 -0.863789
vn -0.863789 0.245039 -0.440255
vn -0.712347 0.151443 -0.685294
vn -0.701290 -0.081024 -0.708256
vn 0.151442 0.685294 0.712347
vn -0.151442 0.685294 -0.712347
vn 0.151443 0.685294 -0.712346
vn 0.440255 0.863789 -0.245039
vn 0.288812 0.957386 -0.000000
vn 0.525731 0.850651 -0.000000
vn -0.288812 0.957386 -0.000000
vn -0.440254 0.863789 -0.245040
vn -0.525731 0.850651 0.000000
vn -0.209769 0.949569 -0.233059
vn -0.092807 0.995684 -0.000000
vn -0.000000 0.974352 -0.225028
vn 0.092807 0.995684 0.000000
vn 0.209769 0.949569 -0.233058
vn 0.354087 0.834204 -0.422760
vn -0.354087 0.834204 -0.422760
vn -0.119040 0.900782 -0.417638
vn 0.119040 0.900782 -0.417639
vn 0.261280 0.776846 -0.572924
vn -0.261280 0.776847 -0.572924
vn 0.000000 0.819924 -0.572472
vn -0.440255 0.863789 0.245039
vn 0.440254 0.863789 0.245039
vn 0.209769 0.949569 0.233059
vn -0.000000 0.974352 0.225028
vn -0.209769 0.949569 0.233059
vn -0.354087 0.834204 0.422760
vn 0.354087 0.834204 0.422760
vn 0.119040 0.900782 0.417639
vn -0.119040 0.900781 0.417639
vn -0.261280 0.776846 0.572924
vn 0.261280 0.776847 0.572924
vn -0.000000 0.819924 0.572472
vn -0.685294 0.712347 -0.151443
vn -0.586866 0.716510 -0.377097
vn -0.483143 0.675753 -0.556714
vn -0.377097 0.586866 -0.716510
vn -0.422760 0.354086 -0.834204
vn -0.776847 0.572924 -0.261280
vn -0.675753 0.556714 -0.483143
vn -0.556714 0.483143 -0.675753
vn -0.572924 0.261280 -0.776847
vn -0.834204 0.422760 -0.354087
vn -0.716510 0.377097 -0.586866
vn -0.567851 -0.132487 -0.812399
vn -0.572472 0.000000 -0.819924
vn -0.414625 -0.059379 -0.908053
vn -0.222882 -0.105618 -0.969107
vn -0.225028 0.000000 -0.974352
vn 0.000000 -0.052860 -0.998602
vn -0.417638 0.119040 -0.900782
vn -0.000000 0.092807 -0.995684
vn -0.233058 0.209769 -0.949569
vn -0.712347 0.151442 0.685293
vn -0.685294 0.712347 0.151443
vn -0.586866 0.716510 0.377097
vn -0.776847 0.572924 0.261280
vn -0.675753 0.556714 0.483143
vn -0.834204 0.422760 0.354087
vn -0.716510 0.377097 0.586866
vn -0.572924 0.261280 0.776847
vn -0.483143 0.675753 0.556714
vn -0.556714 0.483143 0.675753
vn -0.422760 0.354087 0.834204
vn -0.377097 0.586866 0.716510
vn -0.000000 0.288812 0.957386
vn -0.233059 0.209769 0.949569
vn -0.417639 0.119040 0.900782
vn -0.572472 -0.000000 0.819924
vn -0.567851 -0.132488 0.812399
vn 0.000000 0.092807 0.995684
vn -0.225028 -0.000000 0.974352
vn -0.414625 -0.059380 0.908053
vn -0.000000 -0.052860 0.998602
vn -0.222882 -0.105619 0.969107
vn -0.819924 0.572472 0.000000
vn -0.900782 0.417639 -0.119040
vn -0.949569 0.233059 -0.209769
vn -0.995684 -0.000000 -0.092807
vn -0.900782 0.417638 0.119040
vn -0.974352 0.225028 0.000000
vn -0.995684 0.000000 0.092807
vn -0.949569 0.233058 0.209769
vn -0.970065 -0.135145 0.201765
vn -0.991957 -0.126575 -0.000000
vn -0.970065 -0.135146 -0.201764
vn 0.245039 0.440254 0.863789
vn 0.685294 0.712347 0.151443
vn 0.586866 0.716510 0.377097
vn 0.483143 0.675753 0.556713
vn 0.377097 0.586866 0.716510
vn 0.422760 0.354086 0.834204
vn 0.776847 0.572924 0.261280
vn 0.675753 0.556714 0.483143
vn 0.556714 0.483143 0.675753
vn 0.572924 0.261280 0.776847
vn 0.834204 0.422760 0.354087
vn 0.716510 0.377097 0.586866
vn 0.701290 -0.081024 0.708256
vn 0.572472 0.000000 0.819925
vn 0.417639 0.119040 0.900782
vn 0.233059 0.209769 0.949569
vn 0.567851 -0.132487 0.812399
vn 0.414625 -0.059380 0.908053
vn 0.225029 -0.000000 0.974352
vn 0.222882 -0.105619 0.969107
vn 0.685294 0.712347 -0.151442
vn 0.245039 0.440255 -0.863789
vn 0.377097 0.586866 -0.716510
vn 0.483143 0.675753 -0.556714
vn 0.586866 0.716510 -0.377097
vn 0.776847 0.572924 -0.261280
vn 0.422760 0.354087 -0.834204
vn 0.556714 0.483143 -0.675753
vn 0.675753 0.556714 -0.483143
vn 0.834204 0.422760 -0.354087
vn 0.572924 0.261280 -0.776847
vn 0.716510 0.377097 -0.586866
vn 0.225028 0.000000 -0.974352
vn 0.222882 -0.105618 -0.969107
vn 0.233058 0.209769 -0.949569
vn 0.414625 -0.059379 -0.908053
vn 0.417638 0.119040 -0.900782
vn 0.572472 0.000000 -0.819924
vn 0.567851 -0.132487 -0.812399
vn 0.819924 0.572472 0.000000
vn 0.900782 0.417639 0.119040
vn 0.949569 0.233059 0.209769
vn 0.995684 -0.000000 0.092807
vn 0.900782 0.417639 -0.119040
vn 0.974352 0.225028 -0.000000
vn 0.995684 -0.000000 -0.092807
vn 0.949569 0.233059 -0.209769
vn 0.970065 -0.135145 -0.201765
vn 0.991957 -0.126576 0.000000
vn 0.970065 -0.135146 0.201764
f 2/14/1 86/117/2 84/114/3
f 1/13/4 77/107/5 81/111/6
f 1/13/4 71/101/7 67/97/8
f 1/13/4 67/97/8 77/107/5
f 1/13/4 85/116/9 71/101/7
f 2/14/1 76/106/10 54/81/11
f 4/8/12 46/72/13 44/70/14
f 3/7/15 37/59/16 41/67/17
f 3/7/15 45/71/18 27/45/19
f 5/6/20 23/37/21 29/47/22
f 6/9/23 70/100/24 20/34/25
f 4/8/12 36/58/26 17/31/27
f 4/8/12 22/36/28 46/72/13
f 5/11/20 50/76/29 23/38/21
f 6/9/23 16/30/30 60/90/31
f 63/93/32 9/16/33 7/10/34
f 12/22/35 13/24/36 8/4/37
f 12/22/35 87/119/38 13/24/36
f 11/20/39 87/119/38 12/22/35
f 11/20/39 88/120/40 87/119/38
f 10/18/41 88/120/40 11/20/39
f 10/18/41 89/121/42 88/120/40
f 9/16/33 89/121/42 10/18/41
f 63/93/32 89/121/42 9/16/33
f 62/92/43 89/121/42 63/93/32
f 87/119/38 14/26/44 13/24/36
f 87/119/38 90/122/45 14/26/44
f 88/120/40 90/122/45 87/119/38
f 88/120/40 91/123/46 90/122/45
f 89/121/42 91/123/46 88/120/40
f 62/92/43 91/123/46 89/121/42
f 61/91/47 91/123/46 62/92/43
f 90/122/45 15/28/48 14/26/44
f 90/122/45 92/124/49 15/28/48
f 91/123/46 92/124/49 90/122/45
f 61/91/47 92/124/49 91/123/46
f 60/90/31 92/124/49 61/91/47
f 92/124/49 16/30/30 15/28/48
f 60/90/31 16/30/30 92/124/49
f 26/44/50 12/21/35 8/5/37
f 9/15/33 47/73/51 7/10/34
f 9/15/33 93/125/52 47/73/51
f 10/17/41 93/125/52 9/15/33
f 10/17/41 94/126/53 93/125/52
f 11/19/39 94/126/53 10/17/41
f 11/19/39 95/127/54 94/126/53
f 12/21/35 95/127/54 11/19/39
f 26/44/50 95/127/54 12/21/35
f 25/42/55 95/127/54 26/44/50
f 93/125/52 48/74/56 47/73/51
f 93/125/52 96/128/57 48/74/56
f 94/126/53 96/128/57 93/125/52
f 94/126/53 97/129/58 96/128/57
f 95/127/54 97/129/58 94/126/53
f 25/42/55 97/129/58 95/127/54
f 24/40/59 97/129/58 25/42/55
f 96/128/57 49/75/60 48/74/56
f 96/128/57 98/130/61 49/75/60
f 97/129/58 98/130/61 96/128/57
f 24/40/59 98/130/61 97/129/58
f 23/38/21 98/130/61 24/40/59
f 98/130/61 50/76/29 49/75/60
f 23/38/21 50/76/29 98/130/61
f 20/34/25 16/29/30 6/9/23
f 13/23/36 33/52/62 8/3/37
f 13/23/36 99/131/63 33/52/62
f 14/25/44 99/131/63 13/23/36
f 14/25/44 100/132/64 99/131/63
f 15/27/48 100/132/64 14/25/44
f 15/27/48 101/133/65 100/132/64
f 16/29/30 101/133/65 15/27/48
f 20/34/25 101/133/65 16/29/30
f 19/33/66 101/133/65 20/34/25
f 99/131/63 34/54/67 33/52/62
f 99/131/63 102/134/68 34/54/67
f 100/132/64 102/134/68 99/131/63
f 100/132/64 103/135/69 102/134/68
f 101/133/65 103/135/69 100/132/64
f 19/33/66 103/135/69 101/133/65
f 18/32/70 103/135/69 19/33/66
f 102/134/68 35/56/71 34/54/67
f 102/134/68 104/136/72 35/56/71
f 103/135/69 104/136/72 102/134/68
f 18/32/70 104/136/72 103/135/69
f 17/31/27 104/136/72 18/32/70
f 104/136/72 36/58/26 35/56/71
f 17/31/27 36/58/26 104/136/72
f 17/31/27 22/36/28 4/8/12
f 21/35/73 107/139/74 106/138/75
f 22/36/28 107/139/74 21/35/73
f 17/31/27 107/139/74 22/36/28
f 18/32/70 107/139/74 17/31/27
f 105/137/76 108/140/77 68/98/78
f 106/138/75 108/140/77 105/137/76
f 106/138/75 109/141/79 108/140/77
f 107/139/74 109/141/79 106/138/75
f 18/32/70 109/141/79 107/139/74
f 19/33/66 109/141/79 18/32/70
f 108/140/77 69/99/80 68/98/78
f 108/140/77 110/142/81 69/99/80
f 109/141/79 110/142/81 108/140/77
f 19/33/66 110/142/81 109/141/79
f 20/34/25 110/142/81 19/33/66
f 110/142/81 70/100/24 69/99/80
f 20/34/25 70/100/24 110/142/81
f 32/50/82 37/60/16 3/7/15
f 40/66/83 26/43/50 8/1/37
f 40/66/83 111/143/84 26/43/50
f 39/64/85 111/143/84 40/66/83
f 39/64/85 112/144/86 111/143/84
f 38/62/87 112/144/86 39/64/85
f 38/62/87 113/145/88 112/144/86
f 37/60/16 113/145/88 38/62/87
f 32/50/82 113/145/88 37/60/16
f 31/49/89 113/145/88 32/50/82
f 111/143/84 25/41/55 26/43/50
f 111/143/84 114/146/90 25/41/55
f 112/144/86 114/146/90 111/143/84
f 112/144/86 115/147/91 114/146/90
f 113/145/88 115/147/91 112/144/86
f 31/49/89 115/147/91 113/145/88
f 30/48/92 115/147/91 31/49/89
f 114/146/90 24/39/59 25/41/55
f 114/146/90 116/148/93 24/39/59
f 115/147/91 116/148/93 114/146/90
f 30/48/92 116/148/93 115/147/91
f 29/47/22 116/148/93 30/48/92
f 116/148/93 23/37/21 24/39/59
f 29/47/22 23/37/21 116/148/93
f 27/45/19 32/50/82 3/7/15
f 29/47/22 51/77/94 5/6/20
f 29/47/22 117/149/95 51/77/94
f 30/48/92 117/149/95 29/47/22
f 30/48/92 118/150/96 117/149/95
f 31/49/89 118/150/96 30/48/92
f 31/49/89 119/151/97 118/150/96
f 32/50/82 119/151/97 31/49/89
f 27/45/19 119/151/97 32/50/82
f 28/46/98 119/151/97 27/45/19
f 117/149/95 52/78/99 51/77/94
f 117/149/95 120/152/100 52/78/99
f 118/150/96 120/152/100 117/149/95
f 118/150/96 121/153/101 120/152/100
f 119/151/97 121/153/101 118/150/96
f 28/46/98 121/153/101 119/151/97
f 120/152/100 53/79/102 52/78/99
f 120/152/100 122/154/103 53/79/102
f 121/153/101 122/154/103 120/152/100
f 44/70/14 36/57/26 4/8/12
f 33/51/62 40/65/83 8/2/37
f 33/51/62 123/155/104 40/65/83
f 34/53/67 123/155/104 33/51/62
f 34/53/67 124/156/105 123/155/104
f 35/55/71 124/156/105 34/53/67
f 35/55/71 125/157/106 124/156/105
f 36/57/26 125/157/106 35/55/71
f 44/70/14 125/157/106 36/57/26
f 43/69/107 125/157/106 44/70/14
f 123/155/104 39/63/85 40/65/83
f 123/155/104 126/158/108 39/63/85
f 124/156/105 126/158/108 123/155/104
f 124/156/105 127/159/109 126/158/108
f 125/157/106 127/159/109 124/156/105
f 43/69/107 127/159/109 125/157/106
f 42/68/110 127/159/109 43/69/107
f 126/158/108 38/61/87 39/63/85
f 126/158/108 128/160/111 38/61/87
f 127/159/109 128/160/111 126/158/108
f 42/68/110 128/160/111 127/159/109
f 41/67/17 128/160/111 42/68/110
f 128/160/111 37/59/16 38/61/87
f 41/67/17 37/59/16 128/160/111
f 41/67/17 45/71/18 3/7/15
f 41/67/17 129/161/112 45/71/18
f 42/68/110 129/161/112 41/67/17
f 42/68/110 130/162/113 129/161/112
f 43/69/107 130/162/113 42/68/110
f 43/69/107 131/163/114 130/162/113
f 44/70/14 131/163/114 43/69/107
f 44/70/14 46/72/13 131/163/114
f 57/87/115 50/76/29 5/11/20
f 47/73/51 73/103/116 7/10/34
f 47/73/51 132/164/117 73/103/116
f 48/74/56 132/164/117 47/73/51
f 48/74/56 133/165/118 132/164/117
f 49/75/60 133/165/118 48/74/56
f 49/75/60 134/166/119 133/165/118
f 50/76/29 134/166/119 49/75/60
f 57/87/115 134/166/119 50/76/29
f 56/85/120 134/166/119 57/87/115
f 132/164/117 74/104/121 73/103/116
f 132/164/117 135/167/122 74/104/121
f 133/165/118 135/167/122 132/164/117
f 133/165/118 136/168/123 135/167/122
f 134/166/119 136/168/123 133/165/118
f 56/85/120 136/168/123 134/166/119
f 55/83/124 136/168/123 56/85/120
f 135/167/122 75/105/125 74/104/121
f 135/167/122 137/169/126 75/105/125
f 136/168/123 137/169/126 135/167/122
f 55/83/124 137/169/126 136/168/123
f 54/81/11 137/169/126 55/83/124
f 137/169/126 76/106/10 75/105/125
f 54/81/11 76/106/10 137/169/126
f 59/89/127 86/118/2 2/12/1
f 51/77/94 57/86/115 5/6/20
f 54/80/11 59/89/127 2/12/1
f 54/80/11 138/170/128 59/89/127
f 55/82/124 138/170/128 54/80/11
f 55/82/124 139/171/129 138/170/128
f 56/84/120 139/171/129 55/82/124
f 56/84/120 140/172/130 139/171/129
f 57/86/115 140/172/130 56/84/120
f 51/77/94 140/172/130 57/86/115
f 52/78/99 140/172/130 51/77/94
f 138/170/128 58/88/131 59/89/127
f 138/170/128 141/173/132 58/88/131
f 139/171/129 141/173/132 138/170/128
f 139/171/129 142/174/133 141/173/132
f 140/172/130 142/174/133 139/171/129
f 52/78/99 142/174/133 140/172/130
f 53/79/102 142/174/133 52/78/99
f 142/174/133 143/175/134 141/173/132
f 53/79/102 143/175/134 142/174/133
f 80/110/135 63/93/32 7/10/34
f 60/90/31 64/94/136 6/9/23
f 60/90/31 144/176/137 64/94/136
f 61/91/47 144/176/137 60/90/31
f 61/91/47 145/177/138 144/176/137
f 62/92/43 145/177/138 61/91/47
f 62/92/43 146/178/139 145/177/138
f 63/93/32 146/178/139 62/92/43
f 80/110/135 146/178/139 63/93/32
f 79/109/140 146/178/139 80/110/135
f 144/176/137 65/95/141 64/94/136
f 144/176/137 147/179/142 65/95/141
f 145/177/138 147/179/142 144/176/137
f 145/177/138 148/180/143 147/179/142
f 146/178/139 148/180/143 145/177/138
f 79/109/140 148/180/143 146/178/139
f 78/108/144 148/180/143 79/109/140
f 147/179/142 66/96/145 65/95/141
f 147/179/142 149/181/146 66/96/145
f 148/180/143 149/181/146 147/179/142
f 78/108/144 149/181/146 148/180/143
f 77/107/5 149/181/146 78/108/144
f 149/181/146 67/97/8 66/96/145
f 77/107/5 67/97/8 149/181/146
f 64/94/136 70/100/24 6/9/23
f 68/98/78 151/183/147 150/182/148
f 69/99/80 151/183/147 68/98/78
f 69/99/80 152/184/149 151/183/147
f 70/100/24 152/184/149 69/99/80
f 64/94/136 152/184/149 70/100/24
f 65/95/141 152/184/149 64/94/136
f 151/183/147 153/185/150 150/182/148
f 151/183/147 154/186/151 153/185/150
f 152/184/149 154/186/151 151/183/147
f 65/95/141 154/186/151 152/184/149
f 66/96/145 154/186/151 65/95/141
f 153/185/150 155/187/152 72/102/153
f 154/186/151 155/187/152 153/185/150
f 66/96/145 155/187/152 154/186/151
f 67/97/8 155/187/152 66/96/145
f 155/187/152 71/101/7 72/102/153
f 67/97/8 71/101/7 155/187/152
f 84/114/3 76/106/10 2/14/1
f 73/103/116 80/110/135 7/10/34
f 73/103/116 156/188/154 80/110/135
f 74/104/121 156/188/154 73/103/116
f 74/104/121 157/189/155 156/188/154
f 75/105/125 157/189/155 74/104/121
f 75/105/125 158/190/156 157/189/155
f 76/106/10 158/190/156 75/105/125
f 84/114/3 158/190/156 76/106/10
f 83/113/157 158/190/156 84/114/3
f 156/188/154 79/109/140 80/110/135
f 156/188/154 159/191/158 79/109/140
f 157/189/155 159/191/158 156/188/154
f 157/189/155 160/192/159 159/191/158
f 158/190/156 160/192/159 157/189/155
f 83/113/157 160/192/159 158/190/156
f 82/112/160 160/192/159 83/113/157
f 159/191/158 78/108/144 79/109/140
f 159/191/158 161/193/161 78/108/144
f 160/192/159 161/193/161 159/191/158
f 82/112/160 161/193/161 160/192/159
f 81/111/6 161/193/161 82/112/160
f 161/193/161 77/107/5 78/108/144
f 81/111/6 77/107/5 161/193/161
f 81/111/6 85/115/9 1/13/4
f 81/111/6 162/194/162 85/115/9
f 82/112/160 162/194/162 81/111/6
f 82/112/160 163/195/163 162/194/162
f 83/113/157 163/195/163 82/112/160
f 83/113/157 164/196/164 163/195/163
f 84/114/3 164/196/164 83/113/157
f 84/114/3 86/117/2 164/196/164
